<?xml version="1.0" standalone="no"?>
<!DOCTYPE svg PUBLIC "-//W3C//DTD SVG 20010904//EN"
 "http://www.w3.org/TR/2001/REC-SVG-20010904/DTD/svg10.dtd">
<svg version="1.0" xmlns="http://www.w3.org/2000/svg"
 width="1960.000000pt" height="1960.000000pt" viewBox="0 0 1960.000000 1960.000000"
 preserveAspectRatio="xMidYMid meet">
<metadata>
Created by potrace 1.14, written by Peter Selinger 2001-2017
</metadata>
<g transform="translate(0.000000,1960.000000) scale(0.100000,-0.100000)"
fill="#000000" stroke="none">
<path d="M8697 14708 c-3 -7 -3 -74 -1 -148 24 -793 288 -1615 729 -2275 65
-98 330 -459 465 -635 99 -129 923 -1238 956 -1285 20 -30 9 -25 -89 47 -113
82 -203 149 -267 198 -41 32 -1035 775 -1286 960 -93 70 -217 158 -275 197
-322 216 -711 405 -1084 526 -400 130 -874 211 -1240 212 l-120 0 -3 -1107 -2
-1108 1105 0 1105 0 0 -1093 c0 -837 3 -1096 12 -1105 17 -17 2179 -17 2196 0
9 9 12 268 12 1105 l0 1093 1105 0 1105 0 0 1110 0 1110 -1105 0 -1105 0 0
1089 c0 599 -3 1096 -6 1105 -6 14 -112 16 -1104 16 -870 0 -1099 -3 -1103
-12z"/>
<path d="M2968 7013 l-28 -4 0 -1054 0 -1054 246 -3 c135 -2 248 -1 250 1 2 2
4 197 4 433 l0 428 475 0 475 0 2 -427 3 -428 243 -3 242 -2 -2 1057 -3 1058
-220 3 c-121 1 -230 0 -242 -3 l-23 -5 0 -410 0 -410 -475 0 -475 0 -2 413 -3
412 -220 1 c-121 1 -232 -1 -247 -3z"/>
<path d="M5687 7013 c-4 -3 -7 -480 -7 -1060 l0 -1053 820 0 820 0 -2 198 -3
197 -567 3 -568 2 0 240 0 239 488 1 487 0 0 192 0 193 -487 3 -488 2 0 225
c0 124 3 224 8 224 4 -1 251 -1 550 0 l542 1 -2 198 -3 197 -791 3 c-435 1
-794 -1 -797 -5z"/>
<path d="M8685 7011 c-13 -6 -36 -45 -64 -107 -50 -115 -93 -210 -221 -493
-50 -112 -95 -214 -100 -225 -4 -12 -26 -59 -48 -106 -22 -47 -60 -132 -85
-190 -25 -58 -131 -298 -236 -534 -105 -236 -191 -435 -191 -443 0 -10 46 -13
245 -13 243 0 245 0 259 23 7 12 51 113 97 225 l84 202 486 0 486 0 12 -27 c7
-16 42 -100 78 -188 36 -88 74 -177 84 -197 l19 -38 246 0 c213 0 245 2 251
16 5 13 -19 73 -113 279 -12 28 -88 197 -167 375 -184 412 -476 1065 -514
1150 -16 36 -52 115 -79 177 -34 78 -55 113 -69 117 -31 9 -438 6 -460 -3z
m278 -616 c43 -105 100 -244 220 -532 l55 -133 -324 0 c-178 0 -324 2 -324 4
0 3 24 62 54 133 71 170 246 592 257 622 5 13 11 22 14 20 2 -3 24 -54 48
-114z"/>
<path d="M10648 7013 l-28 -4 0 -1055 0 -1054 778 2 777 3 0 195 0 195 -527 3
-528 2 -2 858 -3 857 -220 1 c-121 1 -232 -1 -247 -3z"/>
<path d="M12322 7012 c-9 -7 -12 -54 -10 -203 l3 -194 337 -3 338 -2 2 -853 3
-852 243 -3 242 -2 0 855 0 855 340 0 340 0 -2 203 -3 202 -910 2 c-500 2
-916 -1 -923 -5z"/>
<path d="M14727 7013 c-4 -3 -7 -480 -7 -1060 l0 -1053 243 2 242 3 3 428 2
427 475 0 475 0 0 -428 c0 -236 2 -431 4 -433 2 -2 115 -3 250 -1 l246 3 -2
1057 -3 1057 -245 0 -245 0 -3 -413 -2 -412 -473 2 -472 3 -3 413 -2 412 -238
0 c-131 0 -242 -3 -245 -7z"/>
</g>
</svg>
